<svg width="138" height="30" viewBox="0 0 138 30" fill="none" xmlns="http://www.w3.org/2000/svg">
<path d="M20.5454 23L26.7481 4.12788H32.3174L38.4409 23H33.9802L32.6869 18.8033H25.8507L24.5574 23H20.5454ZM29.282 7.61196L26.7745 15.7679H31.7631L29.282 7.61196ZM45.6922 23.2903C41.9706 23.2903 39.8062 21.6539 39.6742 18.6713H43.2375C43.3959 19.9118 44.0029 20.6245 45.6658 20.6245C47.1439 20.6245 47.8302 20.0702 47.8302 19.12C47.8302 18.1698 47.0119 17.7739 45.0323 17.4835C41.3635 16.9292 39.9382 15.8735 39.9382 13.1812C39.9382 10.3042 42.5776 8.8789 45.4019 8.8789C48.4636 8.8789 50.76 9.98747 51.1031 13.1548H47.5926C47.3814 12.0199 46.748 11.492 45.4282 11.492C44.1877 11.492 43.475 12.0726 43.475 12.9173C43.475 13.7883 44.1349 14.1314 46.1409 14.4218C49.5986 14.9233 51.499 15.7943 51.499 18.7505C51.499 21.7331 49.3346 23.2903 45.6922 23.2903ZM53.9261 23V2.94012H57.7533V15.0288L62.1876 9.19564H66.2523L61.2374 15.4775L66.6482 23H62.3195L57.7533 16.4805V23H53.9261ZM74.7611 23V4.12788H79.7233L86.9026 16.5597V4.12788H90.7034V23H86.4275L78.5619 9.56516V23H74.7611ZM100.731 20.3869C102.869 20.3869 104.11 18.8033 104.11 16.1902V16.0054C104.11 13.366 102.869 11.7823 100.731 11.7823C98.6199 11.7823 97.353 13.3132 97.353 15.9526V16.1638C97.353 18.8033 98.5671 20.3869 100.731 20.3869ZM100.705 23.2903C96.5875 23.2903 93.4466 20.5453 93.4466 16.243V16.0318C93.4466 11.7031 96.5875 8.8789 100.731 8.8789C104.875 8.8789 107.99 11.6503 107.99 15.9526V16.1638C107.99 20.5189 104.849 23.2903 100.705 23.2903ZM113.762 23L108.721 9.19564H112.812L116.111 19.0672L119.384 9.19564H123.079L118.064 23H113.762ZM128.48 23.2903C125.973 23.2903 123.861 22.0762 123.861 19.1728C123.861 15.9526 126.817 14.7385 131.04 14.7385H132.598V14.1842C132.598 12.5477 132.096 11.6503 130.354 11.6503C128.85 11.6503 128.163 12.4158 128.005 13.6035H124.389C124.626 10.3306 127.213 8.8789 130.592 8.8789C133.97 8.8789 136.372 10.2514 136.372 13.9994V23H132.65V21.3371C131.859 22.4457 130.644 23.2903 128.48 23.2903ZM129.615 20.6245C131.304 20.6245 132.598 19.7007 132.598 18.1698V17.0084H131.119C128.902 17.0084 127.609 17.4835 127.609 18.9616C127.609 19.9646 128.216 20.6245 129.615 20.6245Z" fill="white"/>
<path d="M3.31997 11.7413L4.09067 14.7408C4.20924 14.9856 4.44638 15.1693 4.74281 15.1693C4.97995 15.1693 5.21709 14.9856 5.33566 14.7408L6.16565 11.7413L9.01134 10.9455C9.24848 10.823 9.48562 10.5782 9.48562 10.2721C9.48562 10.0273 9.24848 9.7824 9.01134 9.65997L6.16565 8.80296L5.33566 5.86466C5.21709 5.6198 4.97995 5.37494 4.74281 5.37494C4.44638 5.37494 4.20924 5.6198 4.09067 5.86466L3.31997 8.80296L0.414996 9.65997C0.177855 9.7824 0 10.0273 0 10.2721C0 10.5782 0.177855 10.823 0.414996 10.9455L3.31997 11.7413Z" fill="url(#paint0_linear_11_56)"/>
<path d="M7.94421 19.638L10.197 20.3113L10.8492 22.6375C10.9085 22.8823 11.1456 23.0048 11.3827 23.0048C11.5606 23.0048 11.7977 22.8823 11.857 22.6375L12.5092 20.3113L14.762 19.638C14.9991 19.5767 15.177 19.3319 15.177 19.087C15.177 18.9034 14.9991 18.6585 14.762 18.5973L12.5092 17.924L11.857 15.5978C11.7977 15.3529 11.5606 15.1693 11.3827 15.1693C11.1456 15.1693 10.9085 15.3529 10.8492 15.5978L10.197 17.924L7.94421 18.5973C7.70707 18.6585 7.58849 18.9034 7.58849 19.087C7.58849 19.3319 7.70707 19.5767 7.94421 19.638Z" fill="url(#paint1_linear_11_56)"/>
<defs>
<linearGradient id="paint0_linear_11_56" x1="15.177" y1="14.2207" x2="-8.64715e-08" y2="14.2207" gradientUnits="userSpaceOnUse">
<stop stop-color="#00DE96"/>
<stop offset="1" stop-color="#008FF7"/>
</linearGradient>
<linearGradient id="paint1_linear_11_56" x1="15.177" y1="14.2207" x2="-8.64715e-08" y2="14.2207" gradientUnits="userSpaceOnUse">
<stop stop-color="#00DE96"/>
<stop offset="1" stop-color="#008FF7"/>
</linearGradient>
</defs>
</svg>
